<svg width="48" height="48" viewBox="0 0 48 48" fill="none" xmlns="http://www.w3.org/2000/svg">
<path d="M3.42004 9.29974C3.42004 4.43036 7.37067 0.479736 12.24 0.479736H41.64C43.2662 0.479736 44.58 1.79355 44.58 3.41974V32.8197C44.58 34.4459 43.2662 35.7597 41.64 35.7597V41.6397C43.2662 41.6397 44.58 42.9536 44.58 44.5797C44.58 46.2059 43.2662 47.5197 41.64 47.5197H12.24C7.37067 47.5197 3.42004 43.5691 3.42004 38.6997V9.29974ZM9.30004 38.6997C9.30004 40.3259 10.6139 41.6397 12.24 41.6397H35.76V35.7597H12.24C10.6139 35.7597 9.30004 37.0736 9.30004 38.6997ZM17.6055 17.1642L15.6578 15.2165C15.3822 16.1444 15.1892 17.1091 15.1892 18.1197C15.1892 18.1381 15.1892 18.1657 15.1984 18.1932C15.2076 18.2208 15.2076 18.2392 15.2076 18.2667L18.5978 21.2435C18.8275 21.4364 18.9102 21.7764 18.8091 22.0612C18.6897 22.3368 18.4324 22.5297 18.12 22.5297C17.9455 22.5206 17.7709 22.4562 17.6423 22.346L15.474 20.4534C16.5398 25.0104 20.5915 28.4097 25.47 28.4097C30.3486 28.4097 34.4095 25.0104 35.4752 20.4534L33.307 22.346C33.1784 22.4562 33.0038 22.5297 32.82 22.5297C32.6179 22.5206 32.4158 22.4287 32.2688 22.2725C32.1585 22.1347 32.0942 21.9601 32.085 21.7947C32.0942 21.5926 32.1861 21.3905 32.3423 21.2435L35.7509 18.2576C35.7509 18.23 35.7509 18.2116 35.76 18.1841C35.7692 18.1565 35.7692 18.1381 35.7692 18.1105C35.7692 17.0999 35.5763 16.1352 35.3007 15.2073L33.3529 17.155C33.0681 17.4399 32.6087 17.4399 32.3147 17.155C32.0207 16.8702 32.0299 16.4109 32.3147 16.1261L34.7402 13.6914C33.9869 12.1295 32.8568 10.7789 31.4419 9.77749C31.1939 9.60293 30.8723 9.90611 30.9825 10.1909C31.7635 12.2489 31.3133 14.6009 29.7882 16.2179C29.4942 16.5303 29.4574 17.0356 29.7055 17.3847C30.6059 18.671 30.8723 20.3156 30.3945 21.8407C29.8525 23.6231 28.3733 24.9736 26.545 25.3595L26.4164 22.2082L27.574 22.9983C27.6291 23.0351 27.7118 23.0534 27.7853 23.0534C27.9231 23.0534 28.0334 22.9799 28.1069 22.8697C28.1804 22.7594 28.162 22.6124 28.0977 22.5022L27.3075 21.1884L28.9613 20.8576C29.1267 20.8209 29.2461 20.6647 29.2461 20.4901C29.2461 20.3155 29.1175 20.1686 28.9613 20.1318L27.3075 19.7919L28.0885 18.4781C28.162 18.3678 28.1712 18.2116 28.0977 18.1014C28.0242 17.9911 27.9139 17.9176 27.7761 17.9176H27.7669C27.7026 17.9268 27.6291 17.9452 27.574 17.9819L26.2785 18.8639L25.8375 8.55555C25.8284 8.35343 25.663 8.19724 25.47 8.19724C25.2771 8.19724 25.1117 8.34424 25.1025 8.55555L24.6799 18.7353L23.5774 17.9911C23.4396 17.8901 23.2467 17.9084 23.118 18.0279C22.9894 18.1473 22.971 18.3402 23.0445 18.4872L23.8347 19.801L22.1809 20.141C22.0155 20.1777 21.8961 20.3247 21.8961 20.4993C21.8961 20.6739 22.0247 20.83 22.1809 20.8668L23.8347 21.2159L23.0445 22.5206C23.0262 22.5757 22.9986 22.6492 22.9986 22.7043C22.9986 22.8054 23.0445 22.8972 23.1089 22.9799C23.1824 23.035 23.2742 23.0718 23.3661 23.0718C23.4304 23.0718 23.5131 23.0534 23.5682 23.0167L24.5237 22.3644L24.3951 25.3779C22.5668 25.0012 21.0876 23.6414 20.5455 21.859C20.077 20.3339 20.3434 18.6985 21.2438 17.4031C21.4918 17.0448 21.4551 16.5487 21.1611 16.2363C19.636 14.6285 19.1766 12.2765 19.9575 10.2185C20.0678 9.93367 19.7462 9.63049 19.4982 9.80504C18.0925 10.8065 16.9624 12.157 16.209 13.7189L18.6345 16.1536C18.9194 16.4384 18.9194 16.8978 18.6345 17.1826C18.3497 17.4674 17.8904 17.4674 17.6055 17.1826V17.1642Z" fill="#81A6B9"/>
</svg>
