<svg width="56" height="41" viewBox="0 0 56 41" fill="none" xmlns="http://www.w3.org/2000/svg">
<path d="M35.2994 39C46.3994 39 53.7994 28.4291 53.7994 20.5C53.7994 12.5709 46.3994 2 35.2994 2C25.4377 2 17.2188 8.45403 12.8318 13.9337C12.6008 13.0042 12.2699 12.1023 11.8451 11.2438C10.502 8.48117 7.42239 6.5732 5.20979 5.50267C3.90245 4.86873 2.45699 5.69137 2.27445 7.1319C1.91679 9.93897 1.67875 14.3457 3.08969 17.2489C3.79515 18.7006 4.58079 19.7699 5.40219 20.5C4.58079 21.2301 3.79515 22.2994 3.08969 23.7511C1.67875 26.6543 1.91679 31.061 2.27322 33.8681C2.45699 35.3086 3.90369 36.1313 5.20979 35.4986C7.42239 34.4268 10.502 32.5201 11.8451 29.7574C12.3039 28.8114 12.6283 27.9123 12.8318 27.0663C17.2188 32.546 25.4377 39 35.2994 39Z" stroke="white" stroke-width="3.7" stroke-linecap="round" stroke-linejoin="round"/>
<path d="M34.478 8.66003C30.3032 14.5307 30.3032 26.4706 34.478 32.34" stroke="white" stroke-width="3.7" stroke-linecap="round"/>
<path d="M24.1994 15.5667C23.3768 18.0124 23.3768 22.9876 24.1994 25.4333V15.5667Z" fill="#D9D9D9"/>
<path d="M24.1994 15.5667C23.3768 18.0124 23.3768 22.9876 24.1994 25.4333" stroke="white" stroke-width="3.7" stroke-linecap="round"/>
<path d="M41.4661 15.5667V16.8" stroke="white" stroke-width="3.7" stroke-linecap="round"/>
</svg>
