<svg width="45" height="51" viewBox="0 0 45 51" fill="none" xmlns="http://www.w3.org/2000/svg">
<g id="Group 28">
<path id="Vector" d="M9.3743 36.3967C6.94548 36.3967 4.97001 35.5509 3.48869 33.8719C2.00735 32.1929 1.0352 29.7013 0.469093 26.0763C-0.364489 20.7339 0.462642 16.2311 2.79797 13.3979C4.17295 11.7292 5.97767 10.7644 8.01649 10.6092C9.76205 10.4746 12.3713 11.1568 14.8914 15.1638C16.4694 17.673 17.6693 21.0061 18.1838 24.3083C18.8058 28.2946 18.3429 31.2292 16.768 33.2777C15.5177 34.9051 13.5949 35.9133 11.0523 36.2796C10.4966 36.3584 9.93576 36.3973 9.3743 36.3967Z" fill="#29A3A3"/>
<path id="Vector_2" d="M13.5808 50.3414C12.1619 50.3414 10.7238 49.9036 9.42851 49.0621C7.55942 47.8417 6.26558 45.9597 5.82822 43.8251C5.52217 42.3077 5.70583 41.102 6.38887 40.1363C7.49835 38.5683 9.48969 38.2154 11.597 37.8407C11.8193 37.8014 12.0449 37.762 12.2736 37.7196C12.7591 37.6306 13.2554 37.5126 13.7365 37.3977C15.5388 36.9692 17.4033 36.5252 18.9425 37.5788C19.9725 38.2826 20.5535 39.4791 20.7276 41.2345C20.9251 43.26 20.474 45.2813 19.457 46.9269C18.3625 48.6979 16.7213 49.8684 14.8384 50.2245C14.4242 50.3023 14.003 50.3416 13.5808 50.3414Z" fill="#29A3A3"/>
<path id="Vector_3" d="M35.6219 26.4596C35.061 26.4577 34.5008 26.4162 33.9461 26.3354C31.4045 25.9731 29.4817 24.9639 28.2314 23.3335C26.6565 21.2849 26.1904 18.3514 26.8156 14.364C27.33 11.0588 28.5267 7.72869 30.0972 5.22882C32.6044 1.23628 35.2169 0.543768 36.9721 0.665911C39.0046 0.808768 40.806 1.76006 42.1831 3.41939C44.5345 6.25259 45.3681 10.7689 44.5313 16.1351C43.9652 19.7581 43.006 22.2373 41.5118 23.9307C40.0175 25.6243 38.0507 26.4596 35.6219 26.4596Z" fill="#29A3A3"/>
<path id="Vector_4" d="M31.4134 40.4039C30.9923 40.4039 30.5722 40.3647 30.1589 40.2869C28.2729 39.9309 26.6317 38.7603 25.5404 36.9894C24.5234 35.3438 24.0722 33.3225 24.2698 31.297C24.4417 29.5374 25.0217 28.3451 26.0549 27.6403C27.5941 26.5877 29.4586 27.0307 31.2609 27.4602C31.742 27.5741 32.2383 27.692 32.7237 27.7821L33.3993 27.9032C35.5077 28.2768 37.499 28.6277 38.6085 30.1978C39.2915 31.1634 39.4752 32.3712 39.1692 33.8865C38.7321 36.0215 37.4383 37.904 35.5688 39.1246C34.266 39.9671 32.8279 40.4039 31.4134 40.4039Z" fill="#29A3A3"/>
</g>
</svg>
