<svg width="16" height="16" viewBox="0 0 16 16" fill="none" xmlns="http://www.w3.org/2000/svg">
<g clip-path="url(#clip0_35_1095)">
<path d="M9.20619 1.36607C9.20619 0.698912 8.66719 0.159912 8.00003 0.159912C7.33288 0.159912 6.79388 0.698912 6.79388 1.36607V6.79376H1.36619C0.699034 6.79376 0.160034 7.33276 0.160034 7.99991C0.160034 8.66707 0.699034 9.20607 1.36619 9.20607H6.79388V14.6338C6.79388 15.3009 7.33288 15.8399 8.00003 15.8399C8.66719 15.8399 9.20619 15.3009 9.20619 14.6338V9.20607H14.6339C15.301 9.20607 15.84 8.66707 15.84 7.99991C15.84 7.33276 15.301 6.79376 14.6339 6.79376H9.20619V1.36607Z" fill="#81A6B9"/>
</g>
<defs>
<clipPath id="clip0_35_1095">
<rect width="16" height="16" fill="white"/>
</clipPath>
</defs>
</svg>
