<svg width="56" height="56" viewBox="0 0 56 56" fill="none" xmlns="http://www.w3.org/2000/svg">
<g id="Heart--Streamline-Core.svg" clip-path="url(#clip0_35_1019)">
<g id="heart--reward-social-rating-media-heart-it-like-favorite-love">
<path id="Union" fill-rule="evenodd" clip-rule="evenodd" d="M16.0964 0.0372607C20.0185 0.321461 24.1054 2.23338 28.0175 6.10286C31.9287 2.23446 36.0119 0.326181 39.9304 0.0483009C44.3528 -0.265339 48.2624 1.52206 51.0912 4.3421C56.6524 9.88666 58.3988 19.9195 51.498 26.8205C51.4748 26.8438 51.4508 26.8665 51.4264 26.8886L29.3602 46.8764C28.5981 47.5664 27.4369 47.5664 26.6749 46.8764L4.60854 26.8886C4.58414 26.8665 4.5603 26.8438 4.53702 26.8205C-2.3999 19.8836 -0.662813 9.84954 4.91678 4.3093C7.75234 1.4937 11.6699 -0.283459 16.0964 0.0372607Z" fill="#FA0303"/>
</g>
</g>
<defs>
<clipPath id="clip0_35_1019">
<rect width="56" height="56" fill="white"/>
</clipPath>
</defs>
</svg>
