<svg width="64" height="64" viewBox="0 0 64 64" fill="none" xmlns="http://www.w3.org/2000/svg">
<path d="M24.5 32C24.5 33.9891 25.2902 35.8968 26.6967 37.3033C28.1032 38.7098 30.0109 39.5 32 39.5C33.9891 39.5 35.8968 38.7098 37.3033 37.3033C38.7098 35.8968 39.5 33.9891 39.5 32C39.5 30.0109 38.7098 28.1032 37.3033 26.6967C35.8968 25.2902 33.9891 24.5 32 24.5C30.0109 24.5 28.1032 25.2902 26.6967 26.6967C25.2902 28.1032 24.5 30.0109 24.5 32Z" stroke="#81A6B9" stroke-width="4" stroke-linecap="round" stroke-linejoin="round"/>
<path d="M50.5 39.5C50.1672 40.254 50.0679 41.0905 50.215 41.9015C50.362 42.7125 50.7487 43.4608 51.325 44.05L51.475 44.2C51.9399 44.6644 52.3087 45.2158 52.5603 45.8228C52.8119 46.4298 52.9414 47.0804 52.9414 47.7375C52.9414 48.3946 52.8119 49.0452 52.5603 49.6522C52.3087 50.2592 51.9399 50.8106 51.475 51.275C51.0106 51.7399 50.4592 52.1087 49.8522 52.3603C49.2452 52.6119 48.5946 52.7414 47.9375 52.7414C47.2804 52.7414 46.6298 52.6119 46.0228 52.3603C45.4158 52.1087 44.8644 51.7399 44.4 51.275L44.25 51.125C43.6608 50.5487 42.9125 50.162 42.1015 50.015C41.2905 49.8679 40.454 49.9672 39.7 50.3C38.9606 50.6169 38.33 51.1431 37.8858 51.8138C37.4416 52.4846 37.2032 53.2705 37.2 54.075V54.5C37.2 55.8261 36.6732 57.0979 35.7355 58.0355C34.7979 58.9732 33.5261 59.5 32.2 59.5C30.8739 59.5 29.6021 58.9732 28.6645 58.0355C27.7268 57.0979 27.2 55.8261 27.2 54.5V54.275C27.1806 53.4475 26.9128 52.645 26.4313 51.9718C25.9498 51.2985 25.2768 50.7857 24.5 50.5C23.746 50.1672 22.9095 50.0679 22.0985 50.215C21.2875 50.362 20.5392 50.7487 19.95 51.325L19.8 51.475C19.3356 51.9399 18.7842 52.3087 18.1772 52.5603C17.5702 52.8119 16.9196 52.9414 16.2625 52.9414C15.6054 52.9414 14.9548 52.8119 14.3478 52.5603C13.7408 52.3087 13.1894 51.9399 12.725 51.475C12.2601 51.0106 11.8913 50.4592 11.6397 49.8522C11.3881 49.2452 11.2586 48.5946 11.2586 47.9375C11.2586 47.2804 11.3881 46.6298 11.6397 46.0228C11.8913 45.4158 12.2601 44.8644 12.725 44.4L12.875 44.25C13.4513 43.6608 13.838 42.9125 13.985 42.1015C14.1321 41.2905 14.0328 40.454 13.7 39.7C13.3831 38.9606 12.8569 38.33 12.1862 37.8858C11.5154 37.4416 10.7295 37.2032 9.925 37.2H9.5C8.17392 37.2 6.90215 36.6732 5.96447 35.7355C5.02678 34.7979 4.5 33.5261 4.5 32.2C4.5 30.8739 5.02678 29.6021 5.96447 28.6645C6.90215 27.7268 8.17392 27.2 9.5 27.2H9.725C10.5525 27.1806 11.355 26.9128 12.0282 26.4313C12.7015 25.9498 13.2143 25.2768 13.5 24.5C13.8328 23.746 13.9321 22.9095 13.785 22.0985C13.638 21.2875 13.2513 20.5392 12.675 19.95L12.525 19.8C12.0601 19.3356 11.6913 18.7842 11.4397 18.1772C11.1881 17.5702 11.0586 16.9196 11.0586 16.2625C11.0586 15.6054 11.1881 14.9548 11.4397 14.3478C11.6913 13.7408 12.0601 13.1894 12.525 12.725C12.9894 12.2601 13.5408 11.8913 14.1478 11.6397C14.7548 11.3881 15.4054 11.2586 16.0625 11.2586C16.7196 11.2586 17.3702 11.3881 17.9772 11.6397C18.5842 11.8913 19.1356 12.2601 19.6 12.725L19.75 12.875C20.3392 13.4513 21.0875 13.838 21.8985 13.985C22.7095 14.1321 23.546 14.0328 24.3 13.7H24.5C25.2394 13.3831 25.87 12.8569 26.3142 12.1862C26.7584 11.5154 26.9968 10.7295 27 9.925V9.5C27 8.17392 27.5268 6.90215 28.4645 5.96447C29.4021 5.02678 30.6739 4.5 32 4.5C33.3261 4.5 34.5979 5.02678 35.5355 5.96447C36.4732 6.90215 37 8.17392 37 9.5V9.725C37.0032 10.5295 37.2416 11.3154 37.6858 11.9862C38.13 12.6569 38.7606 13.1831 39.5 13.5C40.254 13.8328 41.0905 13.9321 41.9015 13.785C42.7125 13.638 43.4608 13.2513 44.05 12.675L44.2 12.525C44.6644 12.0601 45.2158 11.6913 45.8228 11.4397C46.4298 11.1881 47.0804 11.0586 47.7375 11.0586C48.3946 11.0586 49.0452 11.1881 49.6522 11.4397C50.2592 11.6913 50.8106 12.0601 51.275 12.525C51.7399 12.9894 52.1087 13.5408 52.3603 14.1478C52.6119 14.7548 52.7414 15.4054 52.7414 16.0625C52.7414 16.7196 52.6119 17.3702 52.3603 17.9772C52.1087 18.5842 51.7399 19.1356 51.275 19.6L51.125 19.75C50.5487 20.3392 50.162 21.0875 50.015 21.8985C49.8679 22.7095 49.9672 23.546 50.3 24.3V24.5C50.6169 25.2394 51.1431 25.87 51.8138 26.3142C52.4846 26.7584 53.2705 26.9968 54.075 27H54.5C55.8261 27 57.0979 27.5268 58.0355 28.4645C58.9732 29.4021 59.5 30.6739 59.5 32C59.5 33.3261 58.9732 34.5979 58.0355 35.5355C57.0979 36.4732 55.8261 37 54.5 37H54.275C53.4705 37.0032 52.6846 37.2416 52.0138 37.6858C51.3431 38.13 50.8169 38.7606 50.5 39.5Z" stroke="#81A6B9" stroke-width="4" stroke-linecap="round" stroke-linejoin="round"/>
</svg>
