<svg width="60" height="59" viewBox="0 0 60 59" fill="none" xmlns="http://www.w3.org/2000/svg">
<g id="Stats-Chart--Streamline-Ionic-Filled.svg">
<path id="Vector" d="M12.1862 57.1548H8.43624C7.69033 57.1548 6.97497 56.8634 6.44753 56.3448C5.9201 55.8262 5.62378 55.1226 5.62378 54.3892V37.7957C5.62378 37.0622 5.9201 36.3586 6.44753 35.8401C6.97497 35.3215 7.69033 35.03 8.43624 35.03H12.1862C12.9321 35.03 13.6475 35.3215 14.175 35.8401C14.7023 36.3586 14.9986 37.0622 14.9986 37.7957V54.3892C14.9986 55.1226 14.7023 55.8262 14.175 56.3448C13.6475 56.8634 12.9321 57.1548 12.1862 57.1548Z" fill="#81A6B9"/>
<path id="Vector_2" d="M38.4374 57.1554H34.6875C33.9416 57.1554 33.2261 56.864 32.6988 56.3454C32.1714 55.8267 31.875 55.1232 31.875 54.3898V26.7339C31.875 26.0004 32.1714 25.2969 32.6988 24.7783C33.2261 24.2597 33.9416 23.9683 34.6875 23.9683H38.4374C39.1833 23.9683 39.8988 24.2597 40.4261 24.7783C40.9535 25.2969 41.2499 26.0004 41.2499 26.7339V54.3898C41.2499 55.1232 40.9535 55.8267 40.4261 56.3454C39.8988 56.864 39.1833 57.1554 38.4374 57.1554Z" fill="#81A6B9"/>
<path id="Vector_3" d="M51.5624 57.1551H47.8125C47.0666 57.1551 46.3511 56.8637 45.8238 56.3451C45.2964 55.8265 45 55.123 45 54.3895V13.8276C45 13.0942 45.2964 12.3906 45.8238 11.872C46.3511 11.3534 47.0666 11.062 47.8125 11.062H51.5624C52.3083 11.062 53.0238 11.3534 53.5511 11.872C54.0785 12.3906 54.3749 13.0942 54.3749 13.8276V54.3895C54.3749 55.123 54.0785 55.8265 53.5511 56.3451C53.0238 56.8637 52.3083 57.1551 51.5624 57.1551Z" fill="#81A6B9"/>
<path id="Vector_4" d="M25.3124 57.1555H21.5625C20.8166 57.1555 20.1011 56.8641 19.5738 56.3455C19.0464 55.8269 18.75 55.1233 18.75 54.3899V4.60934C18.75 3.87586 19.0464 3.17242 19.5738 2.65377C20.1011 2.13512 20.8166 1.84375 21.5625 1.84375H25.3124C26.0583 1.84375 26.7738 2.13512 27.3011 2.65377C27.8285 3.17242 28.1249 3.87586 28.1249 4.60934V54.3899C28.1249 55.1233 27.8285 55.8269 27.3011 56.3455C26.7738 56.8641 26.0583 57.1555 25.3124 57.1555Z" fill="#81A6B9"/>
</g>
</svg>
