<svg width="63" height="61" viewBox="0 0 63 61" fill="none" xmlns="http://www.w3.org/2000/svg">
<path id="Vector" d="M59.2355 23.2732H57.8476C55.1754 2.88306 31.4323 -6.96807 15.11 5.54118C9.47787 9.85758 5.79448 16.2374 4.87243 23.2732H3.48445C1.56005 23.2732 0 24.8333 0 26.7577C0.0213 38.1959 6.2471 48.7219 16.2607 54.2499V54.6332C16.2607 57.8406 18.8608 60.4406 22.0682 60.4406H40.6519C43.8591 60.4405 46.4593 57.8405 46.4593 54.6332V54.2499C56.4729 48.7219 62.6987 38.1959 62.72 26.7577C62.72 24.8333 61.16 23.2732 59.2355 23.2732ZM43.6398 11.6758C38.3125 14.0696 33.9165 18.1433 31.1248 23.2732H24.9719C28.1838 16.213 35.2183 11.6745 42.9748 11.6584C43.1955 11.6584 43.4162 11.6584 43.6398 11.6758ZM48.6399 17.2161C49.6848 19.1033 50.4118 21.1497 50.7916 23.2732H39.5281C41.9332 20.4351 45.0921 18.3352 48.6399 17.2161ZM31.36 7.01248C31.601 7.01248 31.8391 7.01248 32.0801 7.02991C25.1468 10.1372 19.8582 16.0411 17.5296 23.2732H11.9284C13.6262 13.8701 21.8048 7.02601 31.36 7.01248ZM41.523 48.9391C40.2843 49.5068 39.4902 50.7444 39.4904 52.107V53.4717H23.2296V52.107C23.2298 50.7444 22.4357 49.5068 21.1971 48.9391C13.6762 45.4715 8.41807 38.4369 7.2215 30.2421H55.4985C54.3019 38.4369 49.0438 45.4715 41.523 48.9391Z" fill="white"/>
</svg>
