<svg width="43" height="54" viewBox="0 0 43 54" fill="none" xmlns="http://www.w3.org/2000/svg">
<path d="M26.4122 2.45506L26.6735 2.81506L39.7935 22.2977C41.3371 24.871 42.2873 27.7562 42.5749 30.7431L42.6389 31.6124C42.6575 31.7377 42.6655 31.8631 42.6655 31.9937L42.6602 32.1537C42.8095 38.2871 40.1429 44.3724 35.0069 48.5271C27.0895 54.9324 15.5775 54.9324 7.66019 48.5271C2.58285 44.4204 -0.0838121 38.4284 0.0201879 32.3377C-0.0155113 32.0418 -0.00380863 31.742 0.0548549 31.4497C0.240527 28.4831 1.07142 25.5927 2.48952 22.9804L2.94819 22.1751L15.9962 2.81506C16.4895 2.08173 17.1322 1.45773 17.8869 0.985731C20.7002 -0.774269 24.4095 -0.112936 26.4122 2.45506ZM20.9189 5.40706L20.7135 5.5084L20.6042 5.5884L20.5055 5.6844L20.4175 5.7964L7.44952 25.0337C6.65139 26.366 6.0657 27.8145 5.71352 29.3271H36.9749C36.692 28.1085 36.2528 26.9317 35.6682 25.8257L35.2922 25.1564L22.2495 5.79373C22.1007 5.59166 21.8894 5.44427 21.6484 5.37437C21.4074 5.30447 21.1527 5.31596 20.9189 5.40706Z" fill="white"/>
</svg>
