<svg width="36" height="40" viewBox="0 0 36 40" fill="none" xmlns="http://www.w3.org/2000/svg">
<path d="M3 40C2.2 40 1.5 39.7 0.9 39.1C0.3 38.5 0 37.8 0 37V6C0 5.2 0.3 4.5 0.9 3.9C1.5 3.3 2.2 3 3 3H6.25V1.6C6.25 1.14667 6.4033 0.76667 6.71 0.46C7.0167 0.15333 7.3967 0 7.85 0C8.3173 0 8.7092 0.15333 9.0255 0.46C9.3418 0.76667 9.5 1.14667 9.5 1.6V3H26.5V1.6C26.5 1.14667 26.6533 0.76667 26.96 0.46C27.2667 0.15333 27.6467 0 28.1 0C28.5677 0 28.9595 0.15333 29.2755 0.46C29.5918 0.76667 29.75 1.14667 29.75 1.6V3H33C33.8 3 34.5 3.3 35.1 3.9C35.7 4.5 36 5.2 36 6V37C36 37.8 35.7 38.5 35.1 39.1C34.5 39.7 33.8 40 33 40H3ZM3 37H33V15.5H3V37ZM18 24C17.4333 24 16.9583 23.8083 16.575 23.425C16.1917 23.0417 16 22.5667 16 22C16 21.4333 16.1917 20.9583 16.575 20.575C16.9583 20.1917 17.4333 20 18 20C18.5667 20 19.0417 20.1917 19.425 20.575C19.8083 20.9583 20 21.4333 20 22C20 22.5667 19.8083 23.0417 19.425 23.425C19.0417 23.8083 18.5667 24 18 24ZM10 24C9.4333 24 8.9583 23.8083 8.575 23.425C8.1917 23.0417 8 22.5667 8 22C8 21.4333 8.1917 20.9583 8.575 20.575C8.9583 20.1917 9.4333 20 10 20C10.5667 20 11.0417 20.1917 11.425 20.575C11.8083 20.9583 12 21.4333 12 22C12 22.5667 11.8083 23.0417 11.425 23.425C11.0417 23.8083 10.5667 24 10 24ZM26 24C25.4333 24 24.9583 23.8083 24.575 23.425C24.1917 23.0417 24 22.5667 24 22C24 21.4333 24.1917 20.9583 24.575 20.575C24.9583 20.1917 25.4333 20 26 20C26.5667 20 27.0417 20.1917 27.425 20.575C27.8083 20.9583 28 21.4333 28 22C28 22.5667 27.8083 23.0417 27.425 23.425C27.0417 23.8083 26.5667 24 26 24ZM18 32C17.4333 32 16.9583 31.8083 16.575 31.425C16.1917 31.0417 16 30.5667 16 30C16 29.4333 16.1917 28.9583 16.575 28.575C16.9583 28.1917 17.4333 28 18 28C18.5667 28 19.0417 28.1917 19.425 28.575C19.8083 28.9583 20 29.4333 20 30C20 30.5667 19.8083 31.0417 19.425 31.425C19.0417 31.8083 18.5667 32 18 32ZM10 32C9.4333 32 8.9583 31.8083 8.575 31.425C8.1917 31.0417 8 30.5667 8 30C8 29.4333 8.1917 28.9583 8.575 28.575C8.9583 28.1917 9.4333 28 10 28C10.5667 28 11.0417 28.1917 11.425 28.575C11.8083 28.9583 12 29.4333 12 30C12 30.5667 11.8083 31.0417 11.425 31.425C11.0417 31.8083 10.5667 32 10 32ZM26 32C25.4333 32 24.9583 31.8083 24.575 31.425C24.1917 31.0417 24 30.5667 24 30C24 29.4333 24.1917 28.9583 24.575 28.575C24.9583 28.1917 25.4333 28 26 28C26.5667 28 27.0417 28.1917 27.425 28.575C27.8083 28.9583 28 29.4333 28 30C28 30.5667 27.8083 31.0417 27.425 31.425C27.0417 31.8083 26.5667 32 26 32Z" fill="white"/>
</svg>
