<svg width="63" height="39" viewBox="0 0 63 39" fill="none" xmlns="http://www.w3.org/2000/svg">
<path d="M61.5 18H59V9.5C59 8.57174 58.6312 7.6815 57.9749 7.02513C57.3185 6.36875 56.4283 6 55.5 6H51V3.5C51 2.57174 50.6312 1.6815 49.9749 1.02513C49.3185 0.368749 48.4283 0 47.5 0H41.5C40.5717 0 39.6815 0.368749 39.0251 1.02513C38.3688 1.6815 38 2.57174 38 3.5V18H25V3.5C25 2.57174 24.6313 1.6815 23.9749 1.02513C23.3185 0.368749 22.4283 0 21.5 0H15.5C14.5717 0 13.6815 0.368749 13.0251 1.02513C12.3687 1.6815 12 2.57174 12 3.5V6H7.5C6.57174 6 5.6815 6.36875 5.02513 7.02513C4.36875 7.6815 4 8.57174 4 9.5V18H1.5C1.10218 18 0.720644 18.158 0.43934 18.4393C0.158035 18.7206 0 19.1022 0 19.5C0 19.8978 0.158035 20.2794 0.43934 20.5607C0.720644 20.842 1.10218 21 1.5 21H4V29.5C4 30.4283 4.36875 31.3185 5.02513 31.9749C5.6815 32.6312 6.57174 33 7.5 33H12V35.5C12 36.4283 12.3687 37.3185 13.0251 37.9749C13.6815 38.6312 14.5717 39 15.5 39H21.5C22.4283 39 23.3185 38.6312 23.9749 37.9749C24.6313 37.3185 25 36.4283 25 35.5V21H38V35.5C38 36.4283 38.3688 37.3185 39.0251 37.9749C39.6815 38.6312 40.5717 39 41.5 39H47.5C48.4283 39 49.3185 38.6312 49.9749 37.9749C50.6312 37.3185 51 36.4283 51 35.5V33H55.5C56.4283 33 57.3185 32.6312 57.9749 31.9749C58.6312 31.3185 59 30.4283 59 29.5V21H61.5C61.8978 21 62.2794 20.842 62.5607 20.5607C62.842 20.2794 63 19.8978 63 19.5C63 19.1022 62.842 18.7206 62.5607 18.4393C62.2794 18.158 61.8978 18 61.5 18ZM7.5 30C7.36739 30 7.24021 29.9473 7.14645 29.8536C7.05268 29.7598 7 29.6326 7 29.5V9.5C7 9.36739 7.05268 9.24021 7.14645 9.14645C7.24021 9.05268 7.36739 9 7.5 9H12V30H7.5ZM22 35.5C22 35.6326 21.9473 35.7598 21.8536 35.8536C21.7598 35.9473 21.6326 36 21.5 36H15.5C15.3674 36 15.2402 35.9473 15.1464 35.8536C15.0527 35.7598 15 35.6326 15 35.5V3.5C15 3.36739 15.0527 3.24021 15.1464 3.14645C15.2402 3.05268 15.3674 3 15.5 3H21.5C21.6326 3 21.7598 3.05268 21.8536 3.14645C21.9473 3.24021 22 3.36739 22 3.5V35.5ZM48 35.5C48 35.6326 47.9473 35.7598 47.8536 35.8536C47.7598 35.9473 47.6326 36 47.5 36H41.5C41.3674 36 41.2402 35.9473 41.1464 35.8536C41.0527 35.7598 41 35.6326 41 35.5V3.5C41 3.36739 41.0527 3.24021 41.1464 3.14645C41.2402 3.05268 41.3674 3 41.5 3H47.5C47.6326 3 47.7598 3.05268 47.8536 3.14645C47.9473 3.24021 48 3.36739 48 3.5V35.5ZM56 29.5C56 29.6326 55.9473 29.7598 55.8536 29.8536C55.7598 29.9473 55.6326 30 55.5 30H51V9H55.5C55.6326 9 55.7598 9.05268 55.8536 9.14645C55.9473 9.24021 56 9.36739 56 9.5V29.5Z" fill="#30B0BE"/>
</svg>
