<svg width="48" height="48" viewBox="0 0 48 48" fill="none" xmlns="http://www.w3.org/2000/svg">
<path id="Vector" d="M24.3599 47.04C17.8993 47.04 11.7033 44.4735 7.1349 39.9051C2.5665 35.3368 0 29.1408 0 22.6802C0 12.8102 5.67 3.96083 14.449 0.139927C14.7585 0.00512668 15.1013 -0.0334733 15.4328 0.0293267C15.7645 0.0922267 16.0694 0.253427 16.3081 0.492127C16.5468 0.730727 16.7081 1.03573 16.7709 1.36733C16.8336 1.69893 16.7951 2.04183 16.6603 2.35123C15.6522 4.66543 15.1199 7.62963 15.1199 10.9203C15.1199 22.4996 24.5405 31.9201 36.1198 31.9201C39.4105 31.9201 42.3746 31.3878 44.6888 30.3798C44.9983 30.2448 45.3411 30.2063 45.6726 30.2692C46.0042 30.332 46.3092 30.4932 46.5479 30.7318C46.7866 30.9704 46.9479 31.2755 47.0107 31.6071C47.0734 31.9388 47.0349 32.2816 46.9002 32.5911C43.0792 41.3701 34.2298 47.04 24.3599 47.04Z" fill="#2CAAA5"/>
</svg>
