<svg width="61" height="59" viewBox="0 0 61 59" fill="none" xmlns="http://www.w3.org/2000/svg">
<path d="M60.7819 26.0361C60.7718 16.6574 53.7388 9.05723 45.0601 9.04632C44.798 9.04632 44.5491 9.04632 44.2949 9.06896C38.6524 -2.50132 23.5353 -3.1319 17.0842 7.93393C16.8686 8.30369 16.6663 8.68232 16.4778 9.06896C16.2367 9.04632 15.9747 9.04632 15.7126 9.04632C3.60997 9.07346 -3.927 23.2485 2.14607 34.5614C3.62106 37.309 5.77929 39.5547 8.37576 41.0436V53.2196C8.37576 56.3475 10.722 58.883 13.6164 58.8829H47.1563C50.0505 58.8827 52.3969 56.3472 52.3969 53.2196V41.0436C57.5489 38.1061 60.7755 32.3309 60.7819 26.0361ZM46.1082 52.087H14.6645V42.9833C15.0104 43.0088 15.3589 43.0258 15.7126 43.0258H45.0601C45.4138 43.0258 45.7623 43.0088 46.1082 42.9833V52.087ZM45.0601 36.2299H42.7987L43.9176 31.3906C44.4644 28.8425 42.2535 26.6103 39.938 27.3727C38.9002 27.7145 38.0987 28.6102 37.8176 29.7426L36.3161 36.2299H33.5307V30.5666C33.5307 27.9509 30.9104 26.3161 28.8142 27.6239C27.8413 28.2309 27.242 29.3527 27.242 30.5666V36.2299H24.4566L22.9552 29.7426C22.4084 27.1945 19.5141 26.2415 17.7454 28.0273C16.8964 28.8845 16.554 30.1779 16.8551 31.3906L17.974 36.2299H15.7126C8.45103 36.2271 3.9153 27.7305 7.54835 20.936C9.05292 18.1221 11.7088 16.2522 14.6986 15.9017C14.6776 16.2584 14.6645 16.6152 14.6645 16.9748C14.6645 19.5906 17.2848 21.2254 19.3811 19.9176C20.3539 19.3106 20.9532 18.1888 20.9532 16.9748C20.9532 9.12763 28.8142 4.22313 35.1029 8.14674C38.0215 9.9677 39.8195 13.333 39.8195 16.9748C39.8195 19.5906 42.4398 21.2254 44.536 19.9176C45.5089 19.3106 46.1082 18.1888 46.1082 16.9748C46.1082 16.6152 46.0951 16.2584 46.0741 15.9017C53.2934 16.748 56.9576 25.7223 52.6697 32.0554C50.894 34.6781 48.0674 36.2287 45.0601 36.2299Z" fill="white"/>
</svg>
