<svg width="331" height="41" viewBox="0 0 331 41" fill="none" xmlns="http://www.w3.org/2000/svg">
<g id="waveform_line 1">
<path id="Vector" d="M2 16.9832L5.30303 15.4783L8.60605 14.2756L11.9091 13.3523L15.2121 12.6625L18.5151 12.1436L21.8182 11.7222L25.1212 11.3228L28.4242 10.8757L31.7272 10.3242L35.0303 9.63089L38.3333 8.78217L41.6363 7.78972L44.9394 6.69071L48.2425 5.54461L51.5455 4.42837L54.8485 3.42944L58.1515 2.63814L61.4546 2.13946L64.7576 2.00501L68.0606 2.28646L71.3637 3.01017L74.6667 4.17448L77.9697 5.74912L81.2727 7.67717L84.5758 9.87938L87.8788 12.2603L91.1818 14.7163L94.4848 17.1433L97.7879 19.4455L101.091 21.5426L104.394 23.3757L107.697 24.9117L111 26.1444L114.303 27.0945L117.606 27.8053L120.909 28.3384L124.212 28.7663L127.515 29.1645L130.818 29.604L134.121 30.1428L137.424 30.8205L140.727 31.6537L144.03 32.6328L147.333 33.7233L150.636 34.8679L153.939 35.991L157.242 37.006L160.545 37.8225L163.848 38.3546L167.152 38.5288L170.455 38.2913L173.758 37.6131L177.061 36.4926L180.364 34.9575L183.667 33.0622L186.97 30.8838L190.273 28.5163L193.576 26.0631L196.879 23.6286L200.182 21.3097L203.485 19.1887L206.788 17.3268L210.091 15.7598L213.394 14.4967L216.697 13.5195L220 12.7868L223.303 12.2388L226.606 11.8037L229.909 11.4059L233.212 10.9736L236.515 10.4471L239.818 9.78454L243.121 8.96732L246.424 8.00186L249.727 6.9204L253.03 5.77816L256.333 4.64896L259.636 3.61886L262.939 2.77809L266.242 2.21345L269.545 2L272.848 2.19376L276.151 2.82666L279.455 3.90286L282.758 5.39777L286.061 7.2597L289.364 9.41334L292.667 11.7662L295.97 14.2155L299.273 16.6565L302.576 18.9912L305.879 21.1356L309.182 23.026L312.485 24.6239L315.788 25.9175L319.091 26.9222L322.394 27.6772L325.697 28.2409L329 28.6841" stroke="#2CAAA5" stroke-width="4" stroke-linecap="round"/>
</g>
</svg>
