<svg width="54" height="54" viewBox="0 0 54 54" fill="none" xmlns="http://www.w3.org/2000/svg">
<g id="Wheat--Streamline-Lucide.svg">
<path id="Vector" d="M5.90625 48.0938L35.4375 18.5625" stroke="white" stroke-width="3.375" stroke-linecap="round" stroke-linejoin="round"/>
<path id="Vector_2" d="M9.00676 28.118L12.2341 24.8906L15.4614 28.118C16.8397 29.5017 17.6136 31.3751 17.6136 33.3281C17.6136 35.2811 16.8397 37.1546 15.4614 38.5383L12.2341 41.7656L9.00676 38.5383C7.62849 37.1546 6.85464 35.2811 6.85464 33.3281C6.85464 31.3751 7.62849 29.5017 9.00676 28.118Z" stroke="white" stroke-width="3.375" stroke-linecap="round" stroke-linejoin="round"/>
<path id="Vector_3" d="M17.4443 19.6805L20.6716 16.4531L23.8989 19.6805C25.2772 21.0642 26.0511 22.9376 26.0511 24.8906C26.0511 26.8436 25.2772 28.7171 23.8989 30.1008L20.6716 33.3281L17.4443 30.1008C16.066 28.7171 15.2921 26.8436 15.2921 24.8906C15.2921 22.9376 16.066 21.0642 17.4443 19.6805Z" stroke="white" stroke-width="3.375" stroke-linecap="round" stroke-linejoin="round"/>
<path id="Vector_4" d="M25.8818 11.243L29.1091 8.01562L32.3364 11.243C33.7147 12.6267 34.4886 14.5001 34.4886 16.4531C34.4886 18.4061 33.7147 20.2796 32.3364 21.6633L29.1091 24.8906L25.8818 21.6633C24.5035 20.2796 23.7296 18.4061 23.7296 16.4531C23.7296 14.5001 24.5035 12.6267 25.8818 11.243Z" stroke="white" stroke-width="3.375" stroke-linecap="round" stroke-linejoin="round"/>
<path id="Vector_5" d="M43.875 5.90625H48.0938V10.125C48.0938 12.3628 47.2048 14.5089 45.6225 16.0912C44.0401 17.6736 41.894 18.5625 39.6562 18.5625H35.4375V14.3438C35.4375 12.106 36.3264 9.95987 37.9088 8.37754C39.4911 6.7952 41.6372 5.90625 43.875 5.90625Z" stroke="white" stroke-width="3.375" stroke-linecap="round" stroke-linejoin="round"/>
<path id="Vector_6" d="M25.882 38.538L29.1094 41.7653L25.882 44.9927C24.4983 46.3709 22.6249 47.1448 20.6719 47.1448C18.7189 47.1448 16.8454 46.3709 15.4617 44.9927L12.2344 41.7653L15.4617 38.538C16.8454 37.1597 18.7189 36.3859 20.6719 36.3859C22.6249 36.3859 24.4983 37.1597 25.882 38.538Z" stroke="white" stroke-width="3.375" stroke-linecap="round" stroke-linejoin="round"/>
<path id="Vector_7" d="M34.3195 30.1005L37.5469 33.3278L34.3195 36.5552C32.9358 37.9334 31.0624 38.7073 29.1094 38.7073C27.1564 38.7073 25.2829 37.9334 23.8992 36.5552L20.6719 33.3278L23.8992 30.1005C25.2829 28.7222 27.1564 27.9484 29.1094 27.9484C31.0624 27.9484 32.9358 28.7222 34.3195 30.1005Z" stroke="white" stroke-width="3.375" stroke-linecap="round" stroke-linejoin="round"/>
<path id="Vector_8" d="M42.757 21.663L45.9844 24.8903L42.757 28.1177C41.3733 29.4959 39.4999 30.2698 37.5469 30.2698C35.5939 30.2698 33.7204 29.4959 32.3367 28.1177L29.1094 24.8903L32.3367 21.663C33.7204 20.2847 35.5939 19.5109 37.5469 19.5109C39.4999 19.5109 41.3733 20.2847 42.757 21.663Z" stroke="white" stroke-width="3.375" stroke-linecap="round" stroke-linejoin="round"/>
</g>
</svg>
